<svg id="Layer_1" data-name="Layer 1" xmlns="http://www.w3.org/2000/svg" viewBox="0 0 1101.54 187.24"><defs><style>.cls-1{fill:#2291ff;}</style></defs><path d="M378.45,75a47.84,47.84,0,0,0,1.72-11.89q0-19.38-24.61-19.39H268.69l34.22,24.06H262.28l-23.59,87.89H286.5l10.55-39.29h39.06q31.25,0,39.61-31.29Zm-49.14,5q-3.36,12.35-19,12.34h-6.88l6.64-24.61H317q12.88,0,12.89,8.36A16.07,16.07,0,0,1,329.31,80Z" transform="translate(-9.06 -3.2)"/><path d="M504,85.06,506.75,75a47.83,47.83,0,0,0,1.72-11.88q0-19.4-24.61-19.39H397l34.22,24.06H390.58L367,155.65H414.8l7.11-26.48,19.37,26.4,51.88.08-28.75-39.32Q495.58,116.56,504,85.06Zm-46.41-5q-3.36,12.35-19,12.34h-6.88l6.64-24.61h6.88q12.89,0,12.89,8.36A16.07,16.07,0,0,1,457.61,80Z" transform="translate(-9.06 -3.2)"/><path d="M560.52,43.7,581.62,67H546.69L494,155.65h49.69l11.33-22h30.7l-.55,22h49.69L628.33,43.7Zm25.39,66.72H566.46l20.7-39.85Z" transform="translate(-9.06 -3.2)"/><path class="cls-1" d="M730.23,87.68l-6.41,24h11.33l-5.31,20H710.23q-12.35,0-12.35-9.7a24,24,0,0,1,.86-6l8.75-32.69q4.23-15.64,19.85-15.65h59.37l6.41-24H701.56Q670.3,43.7,662,75l-13.28,49.41a46.24,46.24,0,0,0-1.72,11.1q-.48,20.18,24.61,20.17h91.56l18.2-68Z" transform="translate(-9.06 -3.2)"/><polygon class="cls-1" points="842.04 40.5 794.23 40.5 828.45 64.56 787.83 64.56 764.23 152.45 867.2 152.45 873.69 128.47 818.53 128.47 842.04 40.5"/><polygon class="cls-1" points="941.6 64.56 900.97 64.56 877.38 152.45 925.19 152.45 955.19 40.5 907.38 40.5 941.6 64.56"/><polygon class="cls-1" points="1051.85 40.5 1021.61 75.73 1010.36 40.5 960.68 40.5 998.8 64.56 970.75 64.56 989.35 108.47 977.55 152.45 1025.44 152.37 1037.16 108.44 1101.54 40.5 1051.85 40.5"/><path d="M205.18,46.62c-16.28-12.86-33.91-23.18-54.41-27.77a91,91,0,0,0-38.39-.61,1.59,1.59,0,0,1-1.58-.54c2.79-.6,5.56-1.28,8.36-1.78s5.68-1,8.55-1.18c25.54-2,48.12,6.38,68.87,20.39,8.47,5.73,16.36,12.31,24.6,18.56.09-3.27-.74-6.45-3.43-8.73C193,23.94,166,8.4,132.07,9.51c-2.75.09-5.5.39-8.24.71s-5.41.8-8.3,1.24c23.63-8.63,58.59-5.54,96.07,21.83-3.15-3-6.12-6.21-9.47-9C186.61,11.56,168.4,5.18,148.65,3.68,98.17-.13,57.43,18.7,26,58,19.74,65.72,15.07,74.41,13.68,84.6,35.33,62.75,62.84,54.87,91.9,50.75c7.37-1,14.89-1.14,23-1.72-1.25,7.27-2.32,13.65-3.44,20-3.08,17.51-6.28,35-9.19,52.54-.61,3.67-2.13,5.07-5.75,5.15s-7.15.73-11.07,1.17c-1.6-8.82-3.17-17.41-4.7-26C78.8,91.19,77,80.44,74.94,69.75c-.51-2.67.08-4.32,2.36-5.54L97,53.67c-21.32,0-56.22,11.92-73.3,25.74-5.94,4.8-11,10.38-13.24,17.82A32.09,32.09,0,0,0,9.17,109c.73,7.57,6.75,11.38,13.76,8.46,4.62-1.92,8.68-5.29,12.82-8.24,1.26-.9,2-2.57,2.86-3.79,3.41,1.87,5.92,3.24,8.42,4.63l35.61,19.73c-3.27,2.73-6.2,5.06-9,7.58-.65.59-1.29,2.26-1,2.65,3.3,4.07,5.82,9.16,12.09,10.05-3.7,5.65-5.34,11.45-.88,17.39,1.92,2.55,4.34,4.1,7.67,2.26.92,7.31,3.88,9.15,10.87,6.81,3.66-1.22,7.24-2.67,11.9-4.4-.93,4-1.25,7.45-2.54,10.49-2.74,6.48-.51,6.25,4.88,7.77.81.22,1.92-.65,2.89-1-.51-1-.81-2.68-1.56-2.92-2.28-.72-2.09-2-1.67-3.79,1-4.38,2.16-8.75,2.94-13.18s-.63-5.85-5-5.52a62.58,62.58,0,0,0-7.07,1c-2.62.49-3.81-.77-4-3.12-.31-3.1-.53-6.21-.58-9.33,0-.68.78-1.45,1.31-2.07.73-.86,1.79-1.49,2.33-2.43,1.37-2.37,2.48-4.89,3.8-7.28,1.77-3.2-1.56-4.64-2.36-6.93a49.44,49.44,0,0,0-3.08-6c3.3-2.11,6.51-4.2,9.76-6.23q35.19-22,70.37-44.08c2.12-1.33,3.81-1.63,6.15-.56a43.69,43.69,0,0,0,9.87,3c-31.4-26.81-65.47-45.88-109-37.62l-.09-1c6.3-.91,12.57-2.2,18.91-2.66,26-1.87,49.13,6.68,70.39,20.77,8.42,5.58,16.11,12.28,24,18.66,2.74,2.23,5.29,3.22,8.69,1.11a7.47,7.47,0,0,0-1-1.43C194.83,62,176,48,153.42,39.91c-17.58-6.32-35.55-8.15-54-4.61-.6.11-1.22.13-1.83.2l-.14-1c6.25-.93,12.48-2.23,18.76-2.71,21.42-1.65,41.17,4.1,59.85,14.17,14.1,7.61,26.65,17.33,38.42,28.12.73.67,1.48,1.33,2.21,2,3.1-2.8,3.14-4.83-.45-7.9-7-6-14.06-12.12-21.5-17.62-16.42-12.13-34.39-21-54.76-24.32a100.71,100.71,0,0,0-37.27,1L102.56,26c7.7-1,15.38-2.67,23.11-3,27.59-1.17,51.39,9.28,73.08,25.26,7.74,5.71,14.9,12.22,22.38,18.42,1.29-3,0-5.8-2.18-7.87A180.61,180.61,0,0,0,205.18,46.62ZM80.75,126.79,40.61,104.53l14.9-18.29c8.83,13.64,17.36,26.83,25.9,40Zm1.4-2.63L56.44,84.51c5.27-5.57,10.47-11.07,16.43-17.35,3.5,19.75,6.78,38.23,10.07,56.72Zm-6.92,14.21,6.92-6c.35-.31.73-.59,1.38-1.1l6.22,11.81C82.47,146.11,80,145.32,75.23,138.37ZM94.46,145c-5.28-4.13-6.65-9.55-8.44-15.32L99.62,128C101.71,135,94.67,138.49,94.46,145Zm9.81-.66c-.42-1.71-.31-4-1.39-5.1-3.37-3.51-.81-6.2.49-9.36C109,138.39,109.08,140.13,104.27,144.3ZM185.5,74.94l-79.36,49.65-.41-.58c15.48-22.11,31-44.22,46.7-66.67Zm-65.62-25.1c2.84.43,5.78.3,8.56.91,7.38,1.63,14.7,3.54,22.64,5.48l-46.61,66.53-.7-.3c.25-1.68.47-3.37.77-5,3.81-21.53,7.68-43.06,11.38-64.62C116.38,50.17,117.41,49.47,119.88,49.84Z" transform="translate(-9.06 -3.2)"/></svg>